<svg width="33" height="33" viewBox="0 0 33 33" fill="none" xmlns="http://www.w3.org/2000/svg">
<path d="M33 7.5075C32.9815 6.79564 32.9264 6.08521 32.835 5.379C32.7118 4.76045 32.5065 4.16115 32.2245 3.597C31.9296 2.98502 31.5335 2.42719 31.053 1.947C30.568 1.47214 30.0112 1.07677 29.403 0.7755C28.8381 0.499033 28.2388 0.299266 27.621 0.1815C26.9215 0.076724 26.2161 0.0161042 25.509 0H7.5075C6.79564 0.0185401 6.08521 0.0736124 5.379 0.165C4.76045 0.288203 4.16115 0.49352 3.597 0.7755C2.98502 1.07042 2.42719 1.46647 1.947 1.947C1.47214 2.43195 1.07677 2.9888 0.7755 3.597C0.499033 4.1619 0.299266 4.7612 0.1815 5.379C0.076724 6.07849 0.0161042 6.78389 0 7.491C0 7.8045 0 8.25 0 8.382V24.618C0 24.7995 0 25.1955 0 25.4925C0.0185401 26.2044 0.0736124 26.9148 0.165 27.621C0.288203 28.2395 0.49352 28.8388 0.7755 29.403C1.07042 30.015 1.46647 30.5728 1.947 31.053C2.43195 31.5279 2.9888 31.9232 3.597 32.2245C4.1619 32.501 4.7612 32.7007 5.379 32.8185C6.07849 32.9233 6.78389 32.9839 7.491 33H25.4925C26.2044 32.9815 26.9148 32.9264 27.621 32.835C28.2395 32.7118 28.8388 32.5065 29.403 32.2245C30.015 31.9296 30.5728 31.5335 31.053 31.053C31.5279 30.568 31.9232 30.0112 32.2245 29.403C32.501 28.8381 32.7007 28.2388 32.8185 27.621C32.9233 26.9215 32.9839 26.2161 33 25.509C33 25.1955 33 24.7995 33 24.618V8.382C33 8.25 33 7.8045 33 7.5075ZM16.8795 28.05C14.8979 28.0402 12.9511 27.5294 11.22 26.565L4.95 28.215L6.6 22.077C5.53594 20.2891 4.96648 18.2505 4.95 16.17C4.95657 13.8318 5.65488 11.5479 6.95699 9.60582C8.2591 7.66375 10.1068 6.15042 12.2673 5.25643C14.4278 4.36244 16.8046 4.12776 19.0982 4.58195C21.3919 5.03614 23.4998 6.15889 25.1566 7.8088C26.8134 9.4587 27.9449 11.562 28.4086 13.8537C28.8723 16.1454 28.6476 18.5232 27.7626 20.6874C26.8775 22.8516 25.3719 24.7056 23.4353 26.0157C21.4986 27.3259 19.2176 28.0337 16.8795 28.05ZM16.8795 6.3855C15.1302 6.40552 13.4174 6.88872 11.9156 7.78592C10.4137 8.68311 9.17644 9.96225 8.32969 11.4931C7.48294 13.024 7.05697 14.7519 7.09514 16.5009C7.13331 18.2499 7.63427 19.9575 8.547 21.45L8.778 21.8295L7.788 25.443L11.55 24.42L11.913 24.6345C13.4138 25.5185 15.1213 25.9909 16.863 26.004C19.4886 26.004 22.0067 24.961 23.8634 23.1044C25.72 21.2477 26.763 18.7296 26.763 16.104C26.763 13.4784 25.72 10.9603 23.8634 9.10364C22.0067 7.24703 19.4886 6.204 16.863 6.204L16.8795 6.3855ZM22.6545 20.4435C22.4384 20.804 22.149 21.1151 21.8051 21.3567C21.4612 21.5982 21.0704 21.765 20.658 21.846C20.0418 21.9586 19.4074 21.919 18.81 21.7305C18.2479 21.5548 17.6969 21.3454 17.16 21.1035C15.1202 20.0799 13.3806 18.545 12.111 16.6485C11.4211 15.7698 11.0025 14.709 10.9065 13.596C10.8967 13.1336 10.9841 12.6744 11.1632 12.248C11.3423 11.8216 11.609 11.4377 11.946 11.121C12.0453 11.0084 12.1671 10.918 12.3035 10.8555C12.4399 10.7929 12.5879 10.7597 12.738 10.758H13.2C13.3815 10.758 13.629 10.758 13.86 11.2695C14.091 11.781 14.7015 13.3155 14.784 13.464C14.8245 13.5432 14.8457 13.6308 14.8457 13.7197C14.8457 13.8087 14.8245 13.8963 14.784 13.9755C14.7111 14.1548 14.6109 14.3218 14.487 14.4705C14.3385 14.652 14.1735 14.8665 14.0415 14.9985C13.9095 15.1305 13.7445 15.2955 13.9095 15.5925C14.3584 16.3502 14.9141 17.0392 15.5595 17.6385C16.2623 18.2595 17.0658 18.7561 17.9355 19.107C18.2325 19.2555 18.414 19.239 18.579 19.107C18.744 18.975 19.3215 18.249 19.5195 17.952C19.7175 17.655 19.9155 17.7045 20.1795 17.8035C20.4435 17.9025 21.912 18.612 22.209 18.7605C22.506 18.909 22.6875 18.975 22.77 19.107C22.8416 19.5388 22.8018 19.9818 22.6545 20.394V20.4435Z" fill="#003642"/>
</svg>
